<?xml version="1.0" encoding="UTF-8" standalone="no"?>
<svg width="19px" height="18px" viewBox="0 0 19 18" version="1.1" xmlns="http://www.w3.org/2000/svg" xmlns:xlink="http://www.w3.org/1999/xlink">
    <!-- Generator: Sketch 3.8.2 (29753) - http://www.bohemiancoding.com/sketch -->
    <title>Baseball-svg</title>
    <desc>Created with Sketch.</desc>
    <defs></defs>
    <g id="Identity" stroke="none" stroke-width="1" fill="none" fill-rule="evenodd">
        <g id="Clean-Sport" transform="translate(-489.000000, -460.000000)" fill="#2B2B2B">
            <g id="Baseball" transform="translate(489.816406, 460.000000)">
                <path d="M8.859375,17.7516562 C6.01825788,17.7516562 3.48518491,16.4073166 1.86286193,14.3213431 C0.695754507,12.8206832 0,10.9361954 0,8.89228125 C0,4.00753125 3.97434375,0.03290625 8.859375,0.03290625 C13.7444062,0.03290625 17.71875,4.00753125 17.71875,8.89228125 C17.71875,13.7773125 13.7444062,17.7516562 8.859375,17.7516562 L8.859375,17.7516562 Z M8.85993719,1.375875 C4.71505442,1.375875 1.34296875,4.74822442 1.34296875,8.89284344 C1.34296875,13.0377262 4.71505442,16.4098119 8.85993719,16.4098119 C13.00482,16.4098119 16.3769056,13.0377262 16.3769056,8.89284344 C16.3769056,4.74822442 13.00482,1.375875 8.85993719,1.375875 L8.85993719,1.375875 Z" id="path-1_30_"></path>
                <path d="M16.6615312,12.2672812 C7.79709375,10.1295 9.3290625,0.52903125 9.345375,0.43228125 C9.378,0.24271875 12.2469254,0.923633428 15.1258004,4.07053968 C18.5694254,7.83535218 17.0592126,10.4110062 16.8952439,10.4110062 C16.8623376,10.4110062 16.6944375,12.2751562 16.6615312,12.2672812 Z M10.4364624,0.93796875 C10.2485874,2.6218125 9.68888686,9.13102497 16.5682619,11.0218687 C16.9448556,9.94102497 17.7837188,6.8068125 15.1754063,3.9549375 C12.9012188,1.46925 10.9094063,1.015875 10.128375,0.93796875 L10.4364624,0.93796875 Z" id="path-2_28_"></path>
                <path d="M1.01904274,10.8624284 C-0.00920726366,6.28649087 2.5965,3.13284375 2.7624375,3.25040625 C2.8423125,3.3069375 10.7142187,9.012375 5.95771875,16.7920313 C5.87953125,16.9202813 2.04673024,15.4363971 1.01904274,10.8624284 Z M1.047375,10.69425 C1.81096875,14.0923125 4.22497475,15.4931746 5.150006,15.9229246 C8.681381,9.7241746 3.78782449,5.49413745 2.45835574,4.4307312 C2.45835574,4.4307312 0.28321875,7.29225 1.047375,10.69425 Z" id="path-3_26_"></path>
                <path d="M8.31228533,4.51142578 C8.13555297,4.51142578 7.96551985,4.41317024 7.88225785,4.24377515 C7.76581866,4.0064306 7.86375519,3.71995829 8.10078072,3.60320008 L10.6665901,2.34406176 C10.9042536,2.22730355 11.190726,2.32524008 11.3071652,2.56258462 C11.4239234,2.79961016 11.3256678,3.08640148 11.0886423,3.20284067 L8.52283291,4.46229801 C8.45488347,4.49579422 8.38278687,4.51142578 8.31228533,4.51142578 L8.31228533,4.51142578 Z M9.16244662,6.757875 C8.98367376,6.757875 8.81136647,6.65830531 8.72699085,6.48632129 C8.6089943,6.24612557 8.70824071,5.95549844 8.94843643,5.83750189 L11.5482399,4.56119946 C11.7890822,4.44320291 12.079386,4.54212604 12.1973826,4.78264504 C12.3153792,5.02316404 12.2161327,5.31379117 11.975937,5.43178772 L9.37613353,6.70809015 C9.30727526,6.74171109 9.23421438,6.757875 9.16244662,6.757875 L9.16244662,6.757875 Z M9.73101948,8.95103992 C9.556482,8.95103992 9.3879413,8.85382918 9.30588028,8.68623533 C9.19036362,8.45141457 9.28757436,8.16767282 9.5220795,8.05247177 L12.0602899,6.80640677 C12.2954263,6.69120573 12.5788524,6.78810085 12.6940535,7.02292161 C12.8092545,7.25742675 12.7123594,7.5411685 12.4775386,7.65636955 L9.93932822,8.90243455 C9.87241692,8.93557458 9.80108696,8.95103992 9.73101948,8.95103992 L9.73101948,8.95103992 Z M11.4840808,11.1333161 C11.3163762,11.1333161 11.1538318,11.0462387 11.0641744,10.890467 C10.9313008,10.6585833 11.0109605,10.3628428 11.2428442,10.2299692 L13.4594466,8.95670482 C13.6906853,8.82350872 13.9867483,8.90349088 14.1199444,9.13537464 C14.252818,9.36693589 14.1731583,9.66267637 13.9412746,9.79554996 L11.7246723,11.0688143 C11.6488827,11.1126755 11.565998,11.1333161 11.4840808,11.1333161 L11.4840808,11.1333161 Z M4.47764844,9.18310347 C4.3030742,9.18310347 4.13511739,9.08604775 4.05287213,8.91840606 C3.9378548,8.68427491 4.0345954,8.40098566 4.26872656,8.28596834 L6.80288909,7.04189054 C7.03765048,6.9265581 7.32062461,7.02361381 7.43564193,7.25774497 C7.55065925,7.49219124 7.45391866,7.77548049 7.2197875,7.89049781 L4.68562497,9.13457561 C4.61850527,9.16734767 4.54728906,9.18310347 4.47764844,9.18310347 L4.47764844,9.18310347 Z M5.6708186,14.076517 C5.49624436,14.076517 5.32828756,13.9794613 5.24604229,13.8118196 C5.13102497,13.5776884 5.22776557,13.2943992 5.46189672,13.1793819 L7.99605925,11.9353041 C8.23082064,11.8199716 8.51379477,11.9170273 8.6288121,12.1511585 C8.74382942,12.3856048 8.64708882,12.668894 8.41295767,12.7839113 L5.87879514,14.0279891 C5.81167544,14.0607612 5.74045923,14.076517 5.6708186,14.076517 L5.6708186,14.076517 Z M5.03272705,11.2952637 C4.91770972,11.0611325 5.01445032,10.7778433 5.24858148,10.662826 L7.48887568,9.55844643 C7.72363707,9.44311399 8.0066112,9.54016971 8.12162853,9.77430086 C8.23664585,10.0087471 8.13990525,10.2920364 7.90577409,10.4070537 L5.66547989,11.5114332 C5.59836019,11.5442053 5.52714399,11.5599611 5.45750336,11.5599611 C5.28292912,11.5599611 5.11497231,11.4629054 5.03272705,11.2952637 L5.03272705,11.2952637 Z M3.22592114,6.99329097 C3.0513469,6.99329097 2.8833901,6.89623525 2.80114483,6.72859356 C2.68612751,6.49446241 2.78286811,6.21117316 3.01699926,6.09615584 L5.55116179,4.85207804 C5.78592318,4.7367456 6.06889731,4.83380131 6.18391463,5.06793247 C6.29893196,5.30237874 6.20219136,5.58566799 5.9680602,5.70068531 L3.43389767,6.94476311 C3.36677798,6.97753517 3.29556177,6.99329097 3.22592114,6.99329097 L3.22592114,6.99329097 Z" id="Combined-Shape"></path>
            </g>
        </g>
    </g>
</svg>