<?xml version="1.0" encoding="UTF-8" standalone="no"?>
<svg width="19px" height="18px" viewBox="0 0 19 18" version="1.1" xmlns="http://www.w3.org/2000/svg" xmlns:xlink="http://www.w3.org/1999/xlink">
    <!-- Generator: Sketch 3.8.2 (29753) - http://www.bohemiancoding.com/sketch -->
    <title>Basketball-svg</title>
    <desc>Created with Sketch.</desc>
    <defs></defs>
    <g id="Identity" stroke="none" stroke-width="1" fill="none" fill-rule="evenodd">
        <g id="Clean-Sport" transform="translate(-401.000000, -237.000000)" fill="#2B2B2B">
            <g id="Basketball" transform="translate(401.185547, 237.000000)">
                <path d="M6.90869929,5.10349149 C6.66565936,5.0687715 6.42609143,5.04331017 6.1917315,5.02479285 C5.66283032,6.12888852 5.30637176,7.32846416 5.15360381,8.59400779 C6.77329133,8.58822112 9.46871986,9.25715959 10.3286183,13.523089 C10.7516235,15.634643 11.7631325,16.710384 13.4580467,16.8290107 C14.8572623,16.0321869 16.0192246,14.8696459 16.8195203,13.474481 C15.4336141,9.16225829 11.6925352,5.79036862 6.90869929,5.10349149 L6.90869929,5.10349149 Z M4.33016138,9.41455688 C3.09586575,9.60204482 2.23481,10.0904393 1.77129814,10.8635378 C1.11509034,11.9572175 1.38069826,13.392889 1.5751302,14.0924968 C2.8273645,15.917611 4.7358066,17.2589599 6.96077927,17.7745517 C5.29306243,15.684987 4.31627339,12.9959238 4.31627339,9.98743671 C4.31569472,9.79531943 4.32206005,9.60551682 4.33016138,9.41455688 L4.33016138,9.41455688 Z M5.74731563,4.24417174 C6.0881502,3.60532393 6.48164341,2.99888145 6.92663795,2.43063095 C5.86478493,2.06028439 5.53957436,1.28255662 5.50716903,0.706783458 C3.33427635,1.62512719 1.59364753,3.370964 0.687455796,5.55253669 C2.06931139,4.69205961 3.65138558,4.23780641 5.3937504,4.23780641 C5.51006237,4.23896374 5.62926767,4.24185708 5.74731563,4.24417174 L5.74731563,4.24417174 Z M4.38976403,8.64608777 C4.53095866,7.35797615 4.87179322,6.12888852 5.38044107,4.99123019 C3.35800167,4.99528085 1.66945284,5.62776333 0.293383913,6.72144301 C0.101266637,7.44998413 0,8.21498123 0,9.00543967 C0,10.1511993 0.214106603,11.250087 0.604706487,12.2604387 C0.639426477,11.6678842 0.783514435,11.0463964 1.12203433,10.4781459 C1.72963415,9.4643222 2.83025783,8.84862105 4.38976403,8.64608777 L4.38976403,8.64608777 Z M7.45785379,1.8010418 C8.05330161,1.136154 8.72166142,0.535498176 9.44788787,0.0146983299 C9.29974924,0.00717566547 9.15103196,0.003125 9.00405067,0.003125 C7.27846718,0.003125 6.26985148,0.474159527 6.26985148,0.474159527 C6.25191281,0.580634162 6.14428085,1.50071389 7.45785379,1.8010418 L7.45785379,1.8010418 Z M16.3091365,3.74478256 L16.2935125,3.75577722 C14.6072783,1.64827385 11.8846525,2.74484685 11.8562978,2.75584152 C11.1161834,3.06253476 9.76557577,3.01971344 7.73329904,2.62622022 C7.2987205,3.14702007 6.90927795,3.7077479 6.57133672,4.30319573 C6.71831801,4.31824105 6.86761397,4.33560105 7.01806725,4.35701171 C10.4518742,4.8494569 13.4864013,6.65200303 15.5655501,9.42670887 C16.2888832,10.3930819 16.8663923,11.4369963 17.2893975,12.530676 C17.7523307,11.4485696 18.006944,10.2553593 18.006944,9.00543967 C18.005208,7.04086691 17.3767762,5.22385412 16.3091365,3.74478256 L16.3091365,3.74478256 Z M11.5675432,2.06028439 C12.1959751,1.79872713 13.2705587,1.5765192 14.3827557,1.78831114 C13.2896547,0.968919381 12.0027004,0.39777555 10.6046422,0.145476958 C9.76731177,0.656439473 9.00115733,1.27040462 8.3212242,1.97059108 C10.3066289,2.31721231 11.1821514,2.21941768 11.5675432,2.06028439 L11.5675432,2.06028439 Z M9.59081849,13.6718063 C8.84260271,9.95561005 6.62804604,9.31386891 5.08821449,9.34395957 C5.0760625,9.55633017 5.07027583,9.76927944 5.07027583,9.98396471 C5.07027583,13.0815665 6.18247283,15.8904136 8.11348293,17.959725 C8.40628818,17.9869223 8.70372275,18.003125 9.005208,18.003125 C10.1758503,18.003125 11.297306,17.7791811 12.326175,17.3712212 C10.9078634,16.9019227 9.99125571,15.6647337 9.59081849,13.6718063 L9.59081849,13.6718063 Z" id="Combined-Shape"></path>
            </g>
        </g>
    </g>
</svg>