<?xml version="1.0" encoding="UTF-8" standalone="no"?>
<svg width="26px" height="19px" viewBox="0 0 26 19" version="1.1" xmlns="http://www.w3.org/2000/svg" xmlns:xlink="http://www.w3.org/1999/xlink">
    <!-- Generator: Sketch 3.8.2 (29753) - http://www.bohemiancoding.com/sketch -->
    <title>Golf-svg</title>
    <desc>Created with Sketch.</desc>
    <defs></defs>
    <g id="Identity" stroke="none" stroke-width="1" fill="none" fill-rule="evenodd">
        <g id="Clean-Sport" transform="translate(-551.000000, -237.000000)" fill="#2B2B2B">
            <g id="Golf" transform="translate(551.706055, 237.000000)">
                <path d="M18.8680079,11.1449547 C19.2256081,11.4098538 19.5576397,11.8961883 19.5576397,12.7550873 C19.5576397,13.6494708 18.5212084,14.6222068 16.8964192,14.6222068 C15.27163,14.6222068 14.2863316,13.4634531 14.2863316,12.7550873 C14.2863316,11.8334845 14.8547864,10.8942497 15.968535,10.7677401 L15.9685356,7.33336993 C14.4161501,6.89510532 12.8384852,6.67003941 10.9470038,6.67003941 C4.90121581,6.67003941 0,9.2126748 0,12.3488852 C0,15.4859939 4.90121581,18.0281802 10.946914,18.0281802 C16.9926121,18.0281802 21.893828,15.4855448 21.893828,12.3488852 C21.8946364,10.7964997 20.8145533,9.38062576 18.8680081,8.35606209 L18.8680079,11.1449547 L18.8680079,11.1449547 Z M23.0818763,1.88389164 C22.2241208,1.0479641 21.6049452,0.444058996 20.616402,0.164608043 C18.5093365,-0.429236463 17.0893555,1.10392615 17.0298902,1.16949966 C16.8923655,1.32067804 16.8122401,1.53778925 16.8089165,1.76666775 L16.6638463,12.7684659 C16.65675,13.2153538 16.9397042,13.5822062 17.2956875,13.5872365 C17.651581,13.5929854 17.9446856,13.2345768 17.951782,12.7877786 L18.0302007,6.24111678 C20.3132368,6.76705228 23.9849044,6.43693905 24.6037207,4.69600721 C24.7156448,4.38224245 24.8854173,3.5691309 24.0507474,2.80506474 C23.6759903,2.46165716 23.3610578,2.15516836 23.0818763,1.88389164 L23.0818763,1.88389164 Z" id="Combined-Shape"></path>
            </g>
        </g>
    </g>
</svg>