<?xml version="1.0" encoding="UTF-8" standalone="no"?>
<svg width="19px" height="19px" viewBox="0 0 19 19" version="1.1" xmlns="http://www.w3.org/2000/svg" xmlns:xlink="http://www.w3.org/1999/xlink">
    <!-- Generator: Sketch 3.8.2 (29753) - http://www.bohemiancoding.com/sketch -->
    <title>Hockey-svg</title>
    <desc>Created with Sketch.</desc>
    <defs></defs>
    <g id="Identity" stroke="none" stroke-width="1" fill="none" fill-rule="evenodd">
        <g id="Clean-Sport" transform="translate(-510.000000, -237.000000)" fill="#2B2B2B">
            <g id="Hockey" transform="translate(509.526786, 237.000000)">
                <path d="M15.2235434,3.4088593 C11.8044882,-0.0143008966 7.1573047,-0.937916017 4.86188789,1.35041041 C4.86114154,1.35115677 4.860022,1.35152995 4.85890247,1.3522763 L1.79660523,4.41569308 L1.79660523,4.41569308 C-0.493960272,6.70625858 0.428535315,11.3553079 3.85281505,14.7795877 C6.00306568,16.9302115 8.63732796,18.0934068 10.8678118,18.0934068 C12.1866223,18.0930336 13.3639983,17.6862698 14.2159633,16.8361707 C14.2163365,16.8357975 14.2167096,16.8357975 14.2170828,16.8354243 L17.2222839,13.8264915 C17.2237766,13.825372 17.2252693,13.8242524 17.2263888,13.8231329 C17.2301206,13.8190279 17.2338524,13.8152962 17.2375841,13.8115644 L17.2808728,13.7679026 C17.281246,13.7671562 17.2816191,13.7664099 17.2819923,13.7660367 C19.5680797,11.4724858 18.6455841,6.82642184 15.2235434,3.4088593 L15.2235434,3.4088593 Z M14.4320332,4.20036947 C17.4185754,7.18355302 18.3406978,11.1209523 16.4878699,12.9771388 L16.4874967,12.9775119 L16.441969,13.0230396 C16.2344821,13.2234361 16.0060973,13.3861417 15.7392752,13.5208589 C13.661421,14.5922524 10.2834154,13.5003341 7.70811517,10.9239144 C6.2299578,9.44799607 5.21416776,7.69667253 4.84845349,5.99162304 C4.50139811,4.37538987 4.78725233,3.00881267 5.65115899,2.14453283 C6.30048841,1.49632294 7.20395193,1.1873317 8.23243002,1.1873317 C10.1453396,1.1873317 12.4907622,2.25723253 14.4320332,4.20036947 L14.4320332,4.20036947 Z M3.50226704,5.40966797 C3.67353172,8.92810059 5.67199683,14.7352367 13.3008507,15.2463378 C13.8314378,15.2818849 8.77655919,17.9521788 4.71979629,13.7209471 C0.702462352,9.52648913 3.23059359,5.91942888 3.50226704,5.40966797 Z"></path>
            </g>
        </g>
    </g>
</svg>