<?xml version="1.0" encoding="UTF-8" standalone="no"?>
<svg width="18px" height="18px" viewBox="0 0 18 18" version="1.1" xmlns="http://www.w3.org/2000/svg" xmlns:xlink="http://www.w3.org/1999/xlink">
    <!-- Generator: Sketch 3.8.2 (29753) - http://www.bohemiancoding.com/sketch -->
    <title>More-svg</title>
    <desc>Created with Sketch.</desc>
    <defs></defs>
    <g id="Identity" stroke="none" stroke-width="1" fill="none" fill-rule="evenodd">
        <g id="Clean-Sport" transform="translate(-615.000000, -460.000000)" fill="#231F20">
            <g id="More" transform="translate(615.000000, 460.000000)">
                <path d="M8.92136102,0 C3.99416767,0 0,3.9945394 0,8.92136102 C0,13.8485544 3.99416767,17.842722 8.92136102,17.842722 C13.8485544,17.842722 17.842722,13.8489261 17.842722,8.92136102 C17.842722,3.9945394 13.8485544,0 8.92136102,0 L8.92136102,0 Z M8.932141,16.2978397 C4.83463423,16.2978397 1.51291414,12.9761196 1.51291414,8.87898455 C1.51291414,4.78184951 4.83463423,1.45938597 8.932141,1.45938597 C13.029276,1.45938597 16.3513679,4.78110606 16.3513679,8.87861283 C16.3513679,12.9761196 13.0296478,16.2978397 8.932141,16.2978397 L8.932141,16.2978397 Z" id="Shape"></path>
                <path d="M12.1033131,8.14148538 L9.70272356,8.14148538 L9.70569734,5.69703246 C9.69603253,5.52827005 9.62354648,5.19371901 9.21093353,5.19297556 L8.62398232,5.19223211 C8.18497701,5.19186039 8.14743295,5.62528985 8.14520261,5.73866548 L8.14222882,8.14111365 L5.68625248,8.14111365 C5.23274996,8.14111365 5.19446245,8.49090535 5.19260384,8.59089894 L5.19260384,9.26334653 C5.19483418,9.3551622 5.23237824,9.70123666 5.68625248,9.70123666 L8.14037021,9.70123666 L8.13739642,12.1553544 C8.13665297,12.6084852 8.48644467,12.6475161 8.58680998,12.6497465 L9.25925757,12.6504899 C9.35107324,12.6482596 9.69714771,12.6107155 9.69789115,12.1575847 L9.70086494,9.70160839 L12.1471765,9.70160839 C12.3159389,9.69157185 12.6504899,9.61871407 12.6504899,9.20610113 L12.6504899,8.61952164 C12.6501182,8.18051633 12.2166887,8.14371572 12.1033131,8.14148538 L12.1033131,8.14148538 Z" id="Shape"></path>
            </g>
        </g>
    </g>
</svg>