<?xml version="1.0" encoding="UTF-8" standalone="no"?>
<svg width="20px" height="19px" viewBox="0 0 20 19" version="1.1" xmlns="http://www.w3.org/2000/svg" xmlns:xlink="http://www.w3.org/1999/xlink">
    <!-- Generator: Sketch 3.8.2 (29753) - http://www.bohemiancoding.com/sketch -->
    <title>Rugby-svg</title>
    <desc>Created with Sketch.</desc>
    <defs></defs>
    <g id="Identity" stroke="none" stroke-width="1" fill="none" fill-rule="evenodd">
        <g id="Clean-Sport" transform="translate(-364.000000, -236.000000)" fill="#2B2B2B">
            <g id="Rugby" transform="translate(364.000000, 236.000000)">
                <path d="M16.9801403,1.0444191 C17.986684,1.20804738 18.8015983,1.94535292 18.8918127,2.96671195 C18.9811861,3.97854944 19.0728713,3.79948125 18.9811861,7.00491996 L13.0535165,1.0444191 C15.0228816,0.877501317 16.5507319,0.974612545 16.9801403,1.0444191 Z M1.1303316,16.9822823 C1.2405538,18.0016046 2.02492374,18.8315158 3.04200404,18.9045751 C3.48162592,18.936144 4.13458781,18.9521789 6.74233237,18.9521791 L0.814662795,12.991578 C0.968288175,15.7213162 0.88427926,15.2635611 1.1303316,16.9822823 Z M15.0885005,15.0562813 C13.0052051,17.0164568 10.6247089,18.0261591 8.40258034,18.5224416 L1.50716459,11.5886178 C1.99821355,9.37118117 2.99934747,6.97305045 4.93364384,4.89271288 C7.01693924,2.93253741 9.39743537,1.92283507 11.619564,1.4265526 L18.5149797,8.36037644 C18.0239308,10.577813 17.0227969,12.9759438 15.0885005,15.0562813 Z M14.4191388,8.09619506 L13.5693274,7.24166249 L14.2303974,6.57691982 C14.4625207,6.34350694 14.4625207,5.96512231 14.2303974,5.73182894 C13.9982741,5.49853558 13.6220989,5.49853558 13.3899756,5.73182894 L12.7289055,6.39657162 L11.8790941,5.54203905 C11.6470897,5.3088652 11.2709144,5.30874569 11.0386722,5.54203905 C10.8065489,5.77545194 10.8065489,6.15383656 11.0386722,6.38712993 L11.8884836,7.24166249 L10.9170838,8.21845895 L10.0672725,7.36392638 C9.835268,7.13075253 9.45909275,7.13063302 9.22685059,7.36392638 C8.99472728,7.59733927 8.99472728,7.97572389 9.22685059,8.20901726 L10.076662,9.06354982 L9.10526219,10.0403463 L8.2554508,9.18581371 C8.0233275,8.95252035 7.64715224,8.95252035 7.41502894,9.18581371 C7.18290563,9.4192266 7.18290563,9.79761122 7.41502894,10.0309046 L8.26484033,10.8854372 L7.29344054,11.8622336 L6.44362915,11.007701 C6.21150584,10.7744077 5.83533059,10.7744077 5.60320728,11.007701 C5.37108398,11.2411139 5.37108398,11.6194986 5.60320728,11.8527919 L6.45301867,12.7073245 L5.79194861,13.3720672 C5.5598253,13.60548 5.5598253,13.9838647 5.79194861,14.217158 C5.90806969,14.3338047 6.0600849,14.3921281 6.21221897,14.3921281 C6.36435304,14.3921281 6.51636825,14.3338047 6.63248933,14.217158 L7.29355939,13.5524154 L8.14337078,14.4069479 C8.25949186,14.5235946 8.41150708,14.5819179 8.56364114,14.5819179 C8.71577521,14.5819179 8.86779042,14.5235946 8.9839115,14.4069479 C9.21603481,14.173535 9.21603481,13.7951504 8.9839115,13.561857 L8.13410011,12.7073245 L9.1054999,11.730528 L9.95531129,12.5850606 C10.0714324,12.7017073 10.2234476,12.7600306 10.3755817,12.7600306 C10.5277157,12.7600306 10.6797309,12.7017073 10.795852,12.5850606 C11.0279753,12.3516477 11.0279753,11.9732631 10.795852,11.7399697 L9.94604062,10.8854372 L10.9174404,9.9086407 L11.7672518,10.7631733 C11.8833729,10.8798199 12.0353881,10.9381433 12.1875222,10.9381433 C12.3395374,10.9381433 12.4916714,10.8798199 12.6077925,10.7631733 C12.8399158,10.5297604 12.8399158,10.1513758 12.6077925,9.91808239 L11.7579811,9.06354982 L12.7293809,8.08675337 L13.5791923,8.94128593 C13.6953134,9.05793262 13.8473286,9.11625596 13.9994627,9.11625596 C14.1514779,9.11625596 14.3036119,9.05793262 14.419733,8.94128593 C14.6511432,8.70799257 14.6511432,8.32960794 14.4191388,8.09619506 L14.4191388,8.09619506 Z"></path>
            </g>
        </g>
    </g>
</svg>