<?xml version="1.0" encoding="UTF-8" standalone="no"?>
<svg width="19px" height="19px" viewBox="0 0 19 19" version="1.1" xmlns="http://www.w3.org/2000/svg" xmlns:xlink="http://www.w3.org/1999/xlink">
    <!-- Generator: Sketch 3.8.2 (29753) - http://www.bohemiancoding.com/sketch -->
    <title>Football-svg</title>
    <desc>Created with Sketch.</desc>
    <defs></defs>
    <g id="Identity" stroke="none" stroke-width="1" fill="none" fill-rule="evenodd">
        <g id="Clean-Sport" transform="translate(-439.000000, -237.000000)" fill="#2B2B2B">
            <g id="Football" transform="translate(438.206055, 237.000000)">
                <path d="M18.882084,8.81451366 C18.881533,8.79214224 18.8806881,8.76980754 18.8799901,8.74747285 C18.878484,8.69835856 18.876684,8.64935448 18.8744432,8.60042387 C18.8732309,8.5751504 18.8719452,8.54987693 18.8705493,8.52464019 C18.8679411,8.47714224 18.8648922,8.42975448 18.8615493,8.38244019 C18.8598595,8.35867285 18.8582799,8.3349055 18.8563697,8.31117489 C18.8519248,8.25423611 18.8468187,8.19751775 18.8412717,8.14090958 C18.8400228,8.12786877 18.8389575,8.11475448 18.837635,8.10171366 C18.830582,8.03268917 18.8226473,7.96392183 18.8140146,7.89533815 C18.8115166,7.8750606 18.8085779,7.85489326 18.8058962,7.83465244 C18.7993942,7.7857953 18.7927085,7.73704836 18.7853983,7.68844836 C18.7816513,7.6633953 18.7777207,7.6384157 18.7737901,7.61343611 C18.7667738,7.56876673 18.7593534,7.52420754 18.7516391,7.47975856 C18.7473411,7.45492591 18.7430432,7.43005652 18.7385615,7.40529734 C18.7297452,7.35684428 18.7203779,7.30857489 18.7107901,7.26037897 C18.706933,7.24090958 18.7032962,7.22136673 18.6992922,7.20197081 C18.6856636,7.13584836 18.6713371,7.06998305 18.6562758,7.00441162 C18.652235,6.98666877 18.6477534,6.96903611 18.6435656,6.95136673 C18.6320309,6.90261979 18.6202758,6.85401979 18.6080064,6.80560346 C18.6016513,6.7806606 18.5950391,6.75579121 18.5885003,6.73092183 C18.5775534,6.68930142 18.5663493,6.64775448 18.5548146,6.60639121 C18.5476513,6.58071366 18.5404146,6.55507285 18.5330677,6.52946877 C18.520835,6.48700346 18.5081615,6.44475856 18.4953044,6.4025504 C18.4883248,6.37951775 18.4814554,6.35641162 18.4742922,6.33348917 C18.4546391,6.27070958 18.434435,6.2081504 18.4134228,6.1459953 C18.4088677,6.13247693 18.4039452,6.1191055 18.3993166,6.1055504 C18.3821248,6.05551775 18.3646758,6.0055953 18.3466024,5.95592999 C18.3376391,5.93128101 18.328382,5.90677897 18.319235,5.88220346 C18.3047983,5.84355856 18.2902146,5.80502387 18.2752636,5.76663611 C18.2651248,5.74044428 18.2548024,5.71432591 18.2443697,5.68828101 C18.2293452,5.65070142 18.2139901,5.61326877 18.1984513,5.57590958 C18.1880922,5.55092999 18.1777697,5.5259504 18.1671901,5.50108101 C18.1481983,5.45655856 18.1287289,5.41232999 18.1090391,5.36817489 C18.1013983,5.35101979 18.0940146,5.33371775 18.0862636,5.31663611 C18.060035,5.25874224 18.0331085,5.2012157 18.0056677,5.14398305 C17.9942432,5.1201055 17.9824513,5.09648509 17.9708432,5.07275448 C17.9531371,5.03664428 17.9353207,5.00057081 17.9171738,4.96475448 C17.9040595,4.93889326 17.8907615,4.91317897 17.8774268,4.88746468 C17.8597942,4.85344836 17.8419044,4.8196157 17.8238309,4.78585652 C17.8102758,4.76050958 17.796684,4.73508917 17.7828717,4.70985244 C17.7628513,4.67330142 17.7423901,4.63704428 17.7218922,4.60082387 C17.7097697,4.57937081 17.6978677,4.55777081 17.6855615,4.53642795 C17.6540799,4.48187693 17.6220473,4.42772999 17.5894636,4.37391366 C17.5762758,4.35205652 17.5626473,4.33049326 17.5492391,4.30878305 C17.5278962,4.2742157 17.5065166,4.23972183 17.484733,4.20548509 C17.4690473,4.18083611 17.4532146,4.15640754 17.4372717,4.13194224 C17.4169207,4.10057081 17.396386,4.06934632 17.3756309,4.03826877 C17.359284,4.01376673 17.3428636,3.98930142 17.3262962,3.96498305 C17.3042187,3.93261979 17.2818473,3.90051366 17.2593656,3.86844428 C17.2439738,3.84644019 17.2287289,3.82436264 17.2131166,3.80254224 C17.1768228,3.75173815 17.1400881,3.70122795 17.1027656,3.6511953 L17.1027656,3.6511953 C16.1198554,2.3338157 14.7846595,1.2949953 13.2369534,0.673407541 C13.2368799,0.673370807 13.2368064,0.673370807 13.236733,0.673334072 C13.1751656,0.648611623 13.1131942,0.624623868 13.0509656,0.601223868 C13.046484,0.599534072 13.0420758,0.597807541 13.0376309,0.59615448 C12.978635,0.574076929 12.9192717,0.552734072 12.8596881,0.531868766 C12.8516799,0.529076929 12.8436717,0.526211623 12.8356636,0.523419786 C12.778835,0.503693256 12.7217126,0.48462795 12.6643697,0.466040195 C12.6533126,0.462440195 12.6422554,0.45880346 12.6311983,0.455240195 C12.5763166,0.437681011 12.5211411,0.420709582 12.465782,0.404142235 C12.4518228,0.399991215 12.4379003,0.39580346 12.4239779,0.391725909 C12.370933,0.376150399 12.3176309,0.361089174 12.264182,0.346468766 C12.2475044,0.341876929 12.2307901,0.337358562 12.2140391,0.332876929 C12.1627942,0.319211623 12.1114024,0.305913664 12.0597901,0.29312999 C12.0404309,0.288317746 12.0209615,0.283615705 12.0015289,0.278913664 C11.9520105,0.266974888 11.9024187,0.255366725 11.8525697,0.244272848 C11.8306391,0.239387133 11.8086717,0.234685092 11.7867044,0.229909582 C11.7388391,0.219623868 11.6909738,0.209595297 11.6428513,0.200044276 C11.6183126,0.195195297 11.5937003,0.190566725 11.5690881,0.185901419 C11.5230962,0.177195297 11.4770309,0.168636113 11.430782,0.16062795 C11.4035615,0.155889174 11.3761942,0.151517746 11.3488636,0.147036113 C11.304782,0.139799378 11.2606636,0.132672848 11.2163615,0.126097337 C11.1863493,0.121615705 11.1561901,0.117648358 11.1261044,0.113460603 C11.0840064,0.107656521 11.0419085,0.10177897 10.9995901,0.0965626435 C10.9667126,0.0924850925 10.9336513,0.0889585619 10.9006636,0.0852483578 C10.8606962,0.0807667251 10.8207656,0.0761381537 10.7806146,0.0721708068 C10.7444309,0.0685708068 10.7080636,0.0656687659 10.671733,0.0625095823 C10.6343738,0.0592769292 10.5971248,0.0557871333 10.5596187,0.0529952966 C10.5191003,0.0499830517 10.4783248,0.0477422353 10.4376595,0.0452810108 C10.4039738,0.043223868 10.3703983,0.0408361129 10.3366024,0.039146317 C10.2890309,0.0367952966 10.2412024,0.0353259088 10.193484,0.0337095823 C10.1661901,0.0327912149 10.1389697,0.0313952966 10.1115656,0.0307340721 C10.0361493,0.028823868 9.96058603,0.0278320312 9.88476562,0.0278320312 C9.80894522,0.0278320312 9.73338195,0.028823868 9.65800236,0.0306973374 C9.63056154,0.0313952966 9.60334114,0.0327544802 9.57597379,0.0336728476 C9.52825542,0.0352891741 9.48050032,0.0367585619 9.43296562,0.0391095823 C9.39909624,0.0407626435 9.36544726,0.0431871333 9.33172481,0.0452442761 C9.29113297,0.0477055006 9.25043093,0.0499830517 9.2099493,0.0529585619 C9.17240644,0.0557503986 9.13504726,0.0592401945 9.0976146,0.0624728476 C9.0613942,0.0655952966 9.02506358,0.0685340721 8.98899011,0.0721340721 C8.94872889,0.076101419 8.90868807,0.0807667251 8.86861052,0.0852483578 C8.83573297,0.0889585619 8.80281869,0.0924483578 8.77005134,0.0965259088 C8.72762277,0.10177897 8.6854146,0.107656521 8.64316971,0.113460603 C8.6131942,0.117611623 8.58314522,0.121615705 8.55327991,0.126023868 C8.50883093,0.132636113 8.46460236,0.139799378 8.42037379,0.147036113 C8.39322685,0.151481011 8.36600644,0.155815705 8.33889624,0.160517746 C8.29246358,0.168562643 8.24628807,0.177158562 8.20011256,0.185864684 C8.17568399,0.19052999 8.15125542,0.195085092 8.12690032,0.199897337 C8.07863093,0.209485092 8.03050848,0.219550399 7.98249624,0.229872848 C7.96071256,0.234538154 7.93896563,0.239240195 7.91725542,0.244089174 C7.86722277,0.255256521 7.81730032,0.266901419 7.76759828,0.278876929 C7.7484595,0.283505501 7.72928399,0.288170807 7.71018195,0.292909582 C7.65827583,0.30580346 7.60659011,0.319138154 7.5550146,0.332913664 C7.53863093,0.337285092 7.52221052,0.34172999 7.50586358,0.346211623 C7.45208399,0.360905501 7.39848807,0.376076929 7.34507583,0.391762643 C7.33152073,0.39572999 7.31800236,0.399807541 7.30452073,0.403848358 C7.24868399,0.420489174 7.19314114,0.437644276 7.13781869,0.455350399 C7.12723909,0.45872999 7.11669624,0.462183052 7.10615338,0.465636113 C7.0482595,0.484407541 6.99058603,0.503656521 6.93324318,0.523566725 C6.92589624,0.526101419 6.91858603,0.528746317 6.91120236,0.531317746 C6.85092073,0.55240346 6.79089624,0.574040195 6.73120236,0.596374888 C6.72763909,0.597697337 6.72411256,0.599093256 6.72058603,0.600415705 C5.09096154,1.21263611 3.6858595,2.2834157 2.66309216,3.65622795 C2.62727583,3.70431366 2.59193705,3.75272999 2.55707583,3.8015504 C2.54061869,3.82461979 2.52445542,3.84798305 2.50821869,3.87119938 C2.48665542,3.90201979 2.46512889,3.93284019 2.44393297,3.96391775 C2.4268146,3.98900754 2.40995338,4.01420754 2.39309216,4.03944428 C2.37292481,4.06967693 2.35294114,4.10005652 2.3331044,4.13054632 C2.31675746,4.15578305 2.30037379,4.18094632 2.28424726,4.20632999 C2.26323501,4.23935448 2.24262685,4.27263611 2.22205542,4.30595448 C2.20791256,4.32884019 2.19362277,4.35154224 2.17970032,4.37453815 C2.14737379,4.42798713 2.11556154,4.48172999 2.08430032,4.53591366 C2.07151665,4.55806468 2.05913705,4.58047285 2.04657379,4.60273407 C2.02647991,4.63818305 2.00649624,4.67366877 1.98691665,4.70941162 C1.97288399,4.73505244 1.95910848,4.76084019 1.94529624,4.78662795 C1.92747991,4.81987285 1.90984726,4.85326468 1.89247175,4.88680346 C1.87891665,4.91284836 1.86547175,4.93896673 1.85213705,4.9651953 C1.83421052,5.00057081 1.81665134,5.03616673 1.79920236,5.07179938 C1.78737379,5.09593407 1.77539828,5.11995856 1.76375338,5.14424019 C1.73671665,5.20066468 1.71015746,5.25734632 1.68429624,5.3143953 C1.67606767,5.33254224 1.66820644,5.35087285 1.66008807,5.36905652 C1.64058195,5.41288101 1.62122277,5.45677897 1.6024146,5.50097081 C1.59176154,5.5259504 1.58147583,5.55104019 1.57104318,5.57609326 C1.55554114,5.61334224 1.54022277,5.65070142 1.52523501,5.68817081 C1.51480236,5.71428917 1.50451665,5.74044428 1.49426767,5.76667285 C1.47939011,5.80502387 1.46480644,5.84348509 1.45040644,5.88209326 C1.44122277,5.9067055 1.43192889,5.93124428 1.42292889,5.95600346 C1.40496562,6.00555856 1.38751665,6.05533407 1.37036154,6.10525652 C1.36569624,6.11888509 1.36073705,6.13236673 1.35614522,6.1459953 C1.33513297,6.20818713 1.31492889,6.27074632 1.29527583,6.33352591 C1.28811256,6.35644836 1.28124318,6.37948101 1.27426358,6.40247693 C1.26140644,6.44464836 1.24876971,6.48692999 1.23653705,6.52935856 C1.22915338,6.55496264 1.22191665,6.58064019 1.21475338,6.60639121 C1.20321869,6.64782795 1.19197787,6.68937489 1.18103093,6.73103203 C1.17449216,6.75582795 1.16791665,6.7805504 1.16163501,6.80541979 C1.14929216,6.85401979 1.13746358,6.90280346 1.12589216,6.95169734 C1.12177787,6.96929326 1.11736971,6.98674224 1.11329216,7.00433815 C1.09823093,7.06998305 1.0839044,7.13588509 1.07027583,7.20204428 C1.06627175,7.22136673 1.06267175,7.24083611 1.05877787,7.2601953 C1.04915338,7.30846468 1.03982277,7.35677081 1.03096971,7.40533407 C1.02648807,7.43009326 1.02219011,7.45492591 1.01785542,7.47972183 C1.01014114,7.52424428 1.00275746,7.56887693 0.995704401,7.61361979 C0.991773788,7.63852591 0.987843176,7.6633953 0.984132972,7.68837489 C0.976859503,7.73712183 0.970100319,7.7860157 0.963598278,7.83501979 C0.96095338,7.85511366 0.958051339,7.87513407 0.955516645,7.89530142 C0.946920727,7.96388509 0.938986033,8.03268917 0.931896237,8.1017504 C0.930573788,8.11479121 0.929545217,8.1279055 0.928259503,8.14094632 C0.922712564,8.19755448 0.917606441,8.25427285 0.913161543,8.31121162 C0.911251339,8.3349055 0.909671747,8.35870958 0.907981952,8.38247693 C0.904639094,8.42979121 0.901590115,8.47717897 0.898981952,8.52467693 C0.897586033,8.54991366 0.896300319,8.57518713 0.895088074,8.6004606 C0.892847258,8.64935448 0.891047258,8.6983953 0.889541135,8.74750958 C0.888843176,8.76984428 0.887998278,8.79214224 0.887447258,8.8145504 C0.885794196,8.88544836 0.884765625,8.95652999 0.884765625,9.02783203 C0.884765625,9.09164019 0.885757462,9.15522795 0.88715338,9.2187055 C0.88777787,9.24728509 0.888512564,9.27586468 0.889394196,9.30437081 C0.890165625,9.32887285 0.891194196,9.35326468 0.892149298,9.37769326 C0.954010523,10.9948279 1.44239828,12.5024565 2.24821052,13.7915137 C2.24832073,13.7916606 2.2483942,13.7918075 2.24846767,13.7919545 C2.40117379,14.0361667 2.5651942,14.272481 2.73994114,14.5002361 C2.7408595,14.5014851 2.74185134,14.5027341 2.74280644,14.5039831 C2.91571665,14.72913 3.0989493,14.9458647 3.29195338,15.1534892 C3.29643501,15.1583014 3.30091665,15.1631137 3.30539828,15.1679259 C3.34209624,15.2071953 3.37905134,15.2462443 3.41641052,15.2848524 C3.41795338,15.2864688 3.41953297,15.2880484 3.42107583,15.2896647 C3.5371942,15.4094933 3.65661869,15.5260892 3.77916563,15.6393422 C3.7830595,15.6429422 3.78691665,15.646579 3.79084726,15.650179 C3.82714114,15.6836075 3.86376562,15.716632 3.90061052,15.7494361 C3.91071256,15.7584728 3.92088807,15.7674728 3.93102685,15.7764728 C3.96706358,15.8082484 4.00321052,15.8398035 4.03972481,15.8709912 C4.04813705,15.8782279 4.05673297,15.8853545 4.06518195,15.8925545 C4.1817044,15.9914443 4.30079828,16.0873953 4.42235338,16.1803708 C4.43447583,16.1896647 4.44656154,16.1990688 4.45875746,16.2082892 C4.49343501,16.2345545 4.52840644,16.2604524 4.56352481,16.2862035 C4.58009216,16.2983994 4.59669624,16.3104851 4.61333705,16.3225708 C4.64772073,16.3474402 4.68214114,16.3721626 4.71685542,16.3965545 C4.73312889,16.407979 4.74958603,16.4192565 4.76596971,16.4306075 C4.88142685,16.510579 4.99883093,16.5879055 5.11807175,16.6625504 C5.13816563,16.6751137 5.1581493,16.6877504 5.17831665,16.70013 C5.2114146,16.720481 5.24473297,16.7405014 5.27808807,16.7604116 C5.30056971,16.7738565 5.32316154,16.7871912 5.34579011,16.8004157 C5.37866767,16.8196279 5.41158195,16.8387667 5.44467991,16.8576116 C5.46807991,16.8708728 5.49155338,16.8838769 5.51506358,16.8969545 C5.63037379,16.96113 5.74715338,17.0227708 5.86547583,17.0819504 C5.89155746,17.0949912 5.91756562,17.1080688 5.9437942,17.1208524 C5.9761942,17.1366851 6.0088146,17.1521871 6.04139828,17.1676157 C6.06817787,17.1802892 6.09506767,17.1928524 6.1219942,17.205232 C6.1546146,17.2202565 6.18716154,17.2352075 6.22000236,17.2498279 C6.24766358,17.2621708 6.27547175,17.2741831 6.30327991,17.2862688 C6.33575338,17.3003749 6.36811665,17.3146279 6.40077379,17.3283667 C6.40084726,17.3284035 6.40092073,17.3284402 6.40103093,17.3284769 C7.47265542,17.7788075 8.64959828,18.027832 9.88476562,18.027832 C11.1033289,18.027832 12.2650268,17.7851626 13.324933,17.34633 C13.3250064,17.3462933 13.3251166,17.3462565 13.3251901,17.3462198 C13.3797044,17.3236279 13.4339248,17.3004484 13.4879248,17.2768279 C13.4933983,17.2744402 13.4989085,17.2720157 13.504382,17.2696279 C13.5572064,17.2463749 13.6098105,17.222681 13.6621575,17.1984361 C13.6666024,17.196379 13.6710473,17.1942851 13.6754922,17.1922279 C13.9506717,17.0642443 14.2183207,16.922779 14.4775942,16.7686402 C14.4830309,16.7654075 14.4885044,16.7622116 14.4939411,16.7589422 C14.5403738,16.7312075 14.5864758,16.703032 14.6323575,16.6744892 C14.641835,16.6686116 14.6513126,16.6626973 14.6607166,16.6567831 C14.7052758,16.6288279 14.7495779,16.600579 14.7936228,16.5718524 C14.8026962,16.5659014 14.811733,16.5599137 14.8208064,16.5539259 C14.8660636,16.5241708 14.9111738,16.4941953 14.9558799,16.4636688 C14.9576799,16.4624198 14.9594799,16.4611708 14.9613166,16.4599218 C15.1061615,16.3607749 15.2479575,16.2574402 15.3865942,16.1502116 C15.3937575,16.1446647 15.4010309,16.1392279 15.4081942,16.1336443 C15.4455534,16.1045504 15.482582,16.074979 15.5194268,16.0453341 C15.5343779,16.0333218 15.5493656,16.0213463 15.5642799,16.0092239 C15.5984432,15.981379 15.6323493,15.9532769 15.6660717,15.9249545 C15.6832268,15.9105912 15.7003085,15.8961545 15.7173166,15.8816443 C15.7497534,15.8540198 15.7820432,15.8262484 15.8140758,15.7981831 C15.8317452,15.7827177 15.8492309,15.767032 15.8667534,15.7514198 C15.8982717,15.7233545 15.9297534,15.6953626 15.9608309,15.6668565 C15.9771779,15.6518688 15.9933044,15.6366239 16.0095411,15.6215259 C16.0765452,15.5592606 16.1427044,15.4960402 16.2077983,15.4317912 C16.2168717,15.4228647 16.2260922,15.4141218 16.2350922,15.4051218 C16.2611371,15.3792239 16.2866677,15.3528851 16.312382,15.3266565 C16.3337248,15.3048728 16.3551411,15.2831994 16.3762636,15.2611953 C16.4003983,15.2360688 16.4242391,15.2106484 16.4480432,15.1852647 C16.4703779,15.1614606 16.4926758,15.1376198 16.5147534,15.1135953 C16.5374554,15.0888728 16.5599738,15.0639667 16.5824554,15.0389871 C16.6054513,15.0133831 16.6282636,14.987632 16.6509656,14.9617708 C16.6721248,14.9376361 16.693284,14.9134647 16.7142595,14.8890728 C16.7384677,14.8608606 16.7624187,14.8324279 16.7862595,14.8039218 C16.8052513,14.7812933 16.8243534,14.7587749 16.8430881,14.7359259 C16.8729901,14.6995218 16.9024146,14.6627137 16.9317656,14.625832 C16.9439983,14.6104402 16.9565248,14.5952688 16.9686473,14.5798035 C17.0090922,14.5283014 17.0488758,14.4762851 17.088182,14.4239014 C17.1026187,14.4047259 17.1166513,14.3852198 17.1308677,14.3659341 C17.1568024,14.330779 17.1826636,14.2955871 17.208084,14.2600647 C17.223733,14.2382443 17.2390881,14.2162402 17.2545534,14.1942361 C17.2782473,14.1605504 17.3017207,14.1267177 17.3249738,14.0926647 C17.3403289,14.0701096 17.3556105,14.047481 17.370782,14.024779 C17.3939615,13.9901382 17.4168473,13.9552769 17.4395493,13.9202688 C17.4538024,13.8983382 17.4680554,13.8764443 17.4820881,13.8543667 C17.5064799,13.8160524 17.5304309,13.7774443 17.5542717,13.7387259 C17.5659166,13.7198075 17.577782,13.7010361 17.5892799,13.6820443 C17.6237371,13.625179 17.6576064,13.5679463 17.6908146,13.5102728 C17.6914024,13.5093177 17.6919534,13.5083626 17.6925044,13.5074443 C17.6925411,13.5074075 17.6925411,13.5073341 17.6925779,13.5072973 C18.3964881,12.2830035 18.8200024,10.8772769 18.877382,9.37772999 C18.8783371,9.35330142 18.8793656,9.32890958 18.8801371,9.30440754 C18.880982,9.27586468 18.8817534,9.24732183 18.8823779,9.21874224 C18.8837738,9.15526468 18.8847656,9.09167693 18.8847656,9.02786877 C18.8847656,8.95652999 18.8837371,8.88544836 18.882084,8.81451366 L18.882084,8.81451366 Z M10.2320721,3.17939994 L12.379051,1.61954252 C12.563436,1.68171038 12.7459108,1.75092855 12.9262671,1.82723177 C13.8567357,2.22079943 14.6925287,2.78430413 15.4104111,3.50218655 C15.8020686,3.89387875 16.1474648,4.32089202 16.4446897,4.77902395 L15.695376,7.14494489 L13.4620567,7.87814352 L10.2320721,5.53149809 L10.2320721,3.17939994 L10.2320721,3.17939994 Z M4.35915487,3.50218655 C5.07703729,2.78430413 5.91279551,2.22079943 6.8432642,1.82723177 C7.0235857,1.75096328 7.2060605,1.68171038 7.39051496,1.61954252 L9.53745918,3.17939994 L9.53745918,5.53149809 L6.29021342,7.89075074 L4.07773246,7.15612816 L3.32487629,4.77905868 C3.62213587,4.32092675 3.9674974,3.89387875 4.35915487,3.50218655 L4.35915487,3.50218655 Z M5.72486799,14.0163334 L3.60536097,13.6805922 C3.23589638,13.1832841 2.92745353,12.6444382 2.68423483,12.069264 C2.28587434,11.1275079 2.08013001,10.1279252 2.07127369,9.09729332 L3.86212463,7.81639243 L6.07596007,8.55146652 L7.3300489,12.4111177 L5.72486799,14.0163334 L5.72486799,14.0163334 Z M13.266801,16.0747145 C13.1547252,16.1285122 13.0412602,16.1797399 12.9262671,16.2283976 C11.9633252,16.6357186 10.9400215,16.842227 9.88476563,16.842227 C8.82954446,16.842227 7.80620603,16.6357186 6.84329893,16.2283976 C6.71396201,16.1736968 6.58663947,16.1153493 6.46101873,16.0541192 L6.21606349,14.5074594 L7.9470388,12.7764841 L12.065607,12.7764841 L13.5535372,14.2643796 L13.266801,16.0747145 L13.266801,16.0747145 Z M17.0853312,12.0692987 C16.8860814,12.5403852 16.6430711,12.9871255 16.3586966,13.4066716 L14.0446285,13.7731494 L12.4991843,12.2276705 L13.7003089,8.53094071 L15.8977862,7.80948103 L17.6982923,9.09725859 C17.689436,10.1279599 17.4836916,11.1275426 17.0853312,12.0692987 L17.0853312,12.0692987 Z" id="Shape"></path>
            </g>
        </g>
    </g>
</svg>